<?xml version="1.0" encoding="UTF-8" standalone="no"?>
<!-- Created with Inkscape (http://www.inkscape.org/) -->

<svg
   version="1.1"
   id="svg1"
   width="237"
   height="75"
   viewBox="0 0 237 75"
   sodipodi:docname="logotipo.svg"
   inkscape:export-filename="..\..\Escritorio\Proyectos\portafolio-fotografía\public\Logotipo.png"
   inkscape:export-xdpi="96"
   inkscape:export-ydpi="96"
   inkscape:version="1.4 (86a8ad7, 2024-10-11)"
   xmlns:inkscape="http://www.inkscape.org/namespaces/inkscape"
   xmlns:sodipodi="http://sodipodi.sourceforge.net/DTD/sodipodi-0.dtd"
   xmlns="http://www.w3.org/2000/svg"
   xmlns:svg="http://www.w3.org/2000/svg">
  <defs
     id="defs1" />
  <sodipodi:namedview
     id="namedview1"
     pagecolor="#ffffff"
     bordercolor="#000000"
     borderopacity="0.25"
     inkscape:showpageshadow="2"
     inkscape:pageopacity="0.0"
     inkscape:pagecheckerboard="0"
     inkscape:deskcolor="#d1d1d1"
     inkscape:zoom="3.7676949"
     inkscape:cx="111.20858"
     inkscape:cy="20.83502"
     inkscape:window-width="1920"
     inkscape:window-height="1001"
     inkscape:window-x="-9"
     inkscape:window-y="-9"
     inkscape:window-maximized="1"
     inkscape:current-layer="g1" />
  <g
     inkscape:groupmode="layer"
     inkscape:label="Image"
     id="g1">
    <path
       
       d="m 85.92547,73.23416 c -1.94126,-0.783716 -1.503863,-3.625128 0.983961,-6.392035 1.826869,-2.031815 1.984336,-2.668686 0.842169,-3.406236 -0.77266,-0.498939 -2.352173,-0.541443 -3.510043,-0.09446 -4.047494,1.56252 -12.7148,2.303418 -12.7148,1.086889 0,-0.634928 -0.50832,-0.826163 -1.129616,-0.424968 -0.621287,0.401193 -2.639765,1.085311 -4.485519,1.520261 -2.543227,0.599309 -3.81,0.348801 -5.231033,-1.034456 -1.209937,-1.177771 -2.575901,-1.561785 -3.850573,-1.082513 -3.520077,1.323533 -12.419871,2.180944 -12.970764,1.249612 -0.294648,-0.498125 -1.919832,-0.693432 -3.611519,-0.434013 -2.747784,0.421373 -3.075794,0.861207 -3.075794,4.124357 0,2.9083 -0.360357,3.581332 -1.768266,3.302559 -3.411055,-0.675412 -2.597355,-13.670467 1.004643,-16.044426 2.345674,-1.545959 3.473721,0.06377 1.895284,2.704578 -1.902294,3.182638 0.352276,4.296208 4.782483,2.362149 3.134142,-1.368243 3.686962,-1.343584 5.360782,0.239121 1.604463,1.517126 2.432886,1.587313 5.905252,0.500319 2.221436,-0.695399 4.038975,-1.705467 4.038975,-2.244594 0,-0.539125 -0.636051,-0.725208 -1.413449,-0.413519 -0.777397,0.311692 -1.715607,0.05588 -2.084913,-0.568461 -0.369309,-0.624345 0.153068,-1.427924 1.160838,-1.785733 1.007768,-0.357807 2.853112,-1.898474 4.100767,-3.423706 2.144731,-2.621889 2.268737,-2.651569 2.273481,-0.544127 0.004,1.807462 0.482758,2.133597 2.531108,1.724473 1.501296,-0.29986 2.52609,-0.01561 2.52609,0.700666 0,0.662867 -1.388337,1.49533 -3.085195,1.849917 -2.606292,0.544631 -3.037619,1.071741 -2.778698,3.395744 0.409614,3.676599 3.168906,4.081636 8.095835,1.188386 3.766096,-2.211573 4.049028,-2.235179 5.892883,-0.491693 1.716628,1.623181 2.459259,1.678602 6.531184,0.487412 2.526888,-0.739206 4.836804,-1.753927 5.133157,-2.254935 1.169155,-1.976552 3.45086,-0.833711 3.45086,1.728434 0,3.16709 -0.26423,3.139057 5.194449,0.551058 6.168541,-2.924557 8.951651,-2.803481 8.951651,0.389436 v 2.52411 l 7.1728,-3.049877 c 7.18779,-3.056254 9.36587,-3.183076 8.37594,-0.487705 -0.82636,2.250016 0.83928,2.657274 4.42507,1.081955 1.81546,-0.797568 3.71844,-2.642143 4.25934,-4.128619 0.53775,-1.477817 1.67102,-2.686941 2.5184,-2.686941 1.71869,0 2.1205,3.723922 0.51374,4.761485 -0.5648,0.364721 -0.78259,1.076182 -0.48396,1.581026 0.60011,1.014541 2.65697,0.737705 6.71441,-0.9037 2.28553,-0.924594 2.7524,-0.783777 3.18932,0.961994 0.68288,2.728371 2.79366,2.577722 8.85602,-0.632065 5.08808,-2.693924 7.36444,-2.706454 6.38335,-0.03513 -0.95169,2.591288 1.61998,2.926254 5.2562,0.684631 4.2007,-2.589602 4.45596,-2.633825 4.45596,-0.771993 0,2.160459 -7.88254,5.56069 -9.86384,4.254886 -1.04176,-0.686595 -3.7539,-0.719268 -7.71454,-0.09294 -4.29232,0.67879 -6.65595,0.608332 -7.95151,-0.237026 -2.71091,-1.768895 -8.82494,-0.332593 -8.82494,2.073149 0,3.036406 -1.10996,5.247564 -2.63419,5.247564 -1.32803,0 -1.8661,-2.431118 -1.46039,-6.598391 0.21189,-2.176338 -0.0612,-2.228986 -3.37644,-0.650767 -1.86658,0.888614 -3.67485,0.891351 -7.02239,0.01063 -3.63967,-0.95757 -5.34628,-0.877298 -8.85604,0.41654 -4.7683,1.757793 -6.96362,1.422692 -6.96362,-1.062947 0,-0.889214 -0.45964,-1.61675 -1.02143,-1.61675 -2.211304,0 -10.09336,4.533917 -10.09336,5.805891 0,2.076287 -3.380647,5.658329 -4.79957,5.085489 z M 213.493,57.922192 c -1.66723,-0.658953 -5.30479,-2.935608 -8.08349,-5.059235 -8.53867,-6.525695 -14.08864,-8.071895 -18.62569,-5.189033 -2.39495,1.521763 -3.09867,1.638442 -3.09867,0.513766 0,-2.274073 -2.26688,-2.635163 -6.61555,-1.053781 -2.19671,0.798835 -4.77575,1.459581 -5.7312,1.468323 -0.95542,0.0088 -3.5971,1.028829 -5.87036,2.26686 -3.38868,1.845475 -5.29453,2.153566 -10.5798,1.710292 -7.73768,-0.648954 -10.08951,-2.317546 -17.19319,-12.198286 -2.78709,-3.876653 -5.85628,-7.20719 -6.82042,-7.401194 -1.48814,-0.299435 -1.75302,0.504484 -1.75302,5.32011 0,3.120066 0.54563,6.242948 1.21252,6.939738 0.94306,0.985359 -0.0673,1.26689 -4.54697,1.26689 -3.1677,0 -5.75947,-0.475084 -5.75947,-1.055742 0,-0.580658 0.45468,-1.055742 1.01042,-1.055742 1.50861,0 1.34676,-36.1773116 -0.16896,-37.760973 -1.8765,-1.960647 1.2135,-2.6271446 10.20251,-2.2006278 9.46869,0.4492767 12.94024,2.5063518 15.12563,8.9627478 1.91292,5.651502 0.7608,11.469272 -3.0624,15.463915 l -3.01554,3.150729 2.4238,2.760942 c 1.33307,1.518517 3.37717,4.431838 4.54242,6.474047 4.22059,7.396956 8.99806,10.131149 15.37414,8.798752 l 3.22244,-0.673384 -4.23942,-2.230157 c -2.33168,-1.226585 -5.66981,-4.293308 -7.41809,-6.814938 -2.98152,-4.300447 -3.17867,-5.151247 -3.17867,-13.718637 0,-8.055944 0.32687,-9.714814 2.76976,-14.05675 3.73466,-6.6378874 8.55,-9.631267 15.49345,-9.631267 2.98779,0 6.11978,0.5961039 6.95998,1.324675 0.84019,0.7285711 2.21548,1.0488928 3.05616,0.7118259 1.18334,-0.4744581 1.52851,0.2140793 1.52851,3.0491165 0,2.0140806 -0.19236,3.6619646 -0.42749,3.6619646 -0.23511,0 -1.79158,-1.425252 -3.4588,-3.1672277 -4.08262,-4.265673 -9.79681,-4.4188073 -13.67524,-0.3664811 -5.91443,6.1796488 -7.16072,20.7133498 -2.61712,30.5200288 2.39191,5.162584 4.45401,6.752089 9.62977,7.422829 4.36869,0.566151 5.49671,-1.497836 5.49671,-10.057665 0,-5.978462 -0.1544,-6.403861 -2.32401,-6.403861 -1.2782,0 -2.86963,0.5701 -3.53653,1.266891 -0.94306,0.985359 -1.21252,0.750751 -1.21252,-1.055743 0,-2.182818 0.44808,-2.322634 7.44337,-2.322634 h 7.44334 l -0.50171,7.326712 c -0.27597,4.029691 -0.20205,8.14269 0.16422,9.139997 0.60478,1.646659 0.85259,1.603985 2.69687,-0.464384 1.117,-1.252719 2.46791,-2.277671 3.00199,-2.277671 1.34286,0 1.28843,-33.4542156 -0.0559,-34.3222756 -2.04286,-1.3191871 0.23047,-2.6287134 4.56347,-2.6287134 4.33298,0 6.60631,1.3095263 4.56345,2.6287134 -0.62606,0.4042608 -1.02694,7.2259896 -1.02694,17.4749166 v 16.81179 l 4.79958,2.710437 c 2.63975,1.49074 6.61834,3.873566 8.84131,5.295165 2.22297,1.421602 5.79972,3.093596 7.94836,3.715546 3.40483,0.985575 4.5404,0.803085 8.84131,-1.420848 5.83823,-3.018869 6.44186,-1.647801 1.48468,3.372318 -3.88537,3.934705 -9.94694,5.150442 -15.24304,3.057213 z M 137.43181,26.356133 c 5.15974,-7.254803 2.1665,-18.9119643 -4.85611,-18.9119643 h -3.45409 V 18.596356 29.748543 l 3.184,-0.330827 c 2.00322,-0.208137 3.90429,-1.343542 5.1262,-3.061583 z m 2.80458,30.925184 c 0,-0.557948 0.73449,-1.651354 1.63221,-2.429792 1.41211,-1.224507 1.58242,-1.14697 1.26304,0.575051 -0.38058,2.051963 -2.89525,3.662905 -2.89525,1.854741 z M 13.068149,47.546019 C 4.8709317,43.9176 0.79624281,36.908767 0.79624281,26.437235 0.79624281,13.459 7.4330303,4.3107892 17.479946,3.4402629 c 3.370888,-0.2920743 6.256497,0.09811 8.15931,1.1032837 1.619188,0.8553446 3.512346,1.3432234 4.207021,1.0841757 0.834812,-0.3113057 1.263045,0.632676 1.263045,2.7842107 0,3.409325 -2.322297,4.597004 -3.376436,1.726792 C 27.424151,9.2980973 25.71024,7.8207552 23.924197,6.8557431 21.242736,5.4069309 20.015484,5.3082082 16.881644,6.2892306 6.2664871,9.6122124 4.2951429,37.136909 14.197517,43.766078 c 4.13898,2.770851 13.113055,2.129976 14.26959,-1.019047 0.439265,-1.196029 -0.5098,-1.519101 -4.462549,-1.519101 -4.67857,0 -6.371639,-1.114359 -4.010031,-2.639357 1.327717,-0.857367 1.327717,-22.368968 0,-23.226335 -2.807579,-1.812982 -0.118477,-2.639356 8.588705,-2.639356 h 9.599141 v 3.402136 c 0,3.380227 -0.01013,3.387025 -1.572949,1.055743 -1.173251,-1.750157 -2.585433,-2.346395 -5.557397,-2.346395 h -3.98445 v 6.334456 c 0,6.306208 0.01325,6.334454 2.971676,6.334454 1.634421,0 3.252692,-0.475084 3.596158,-1.055742 1.30055,-2.198691 2.52609,-0.918199 2.52609,2.639357 0,3.957594 -1.007493,4.659373 -3.031309,2.111485 -0.691833,-0.870988 -2.338944,-1.583614 -3.660248,-1.583614 -2.173625,0 -2.402367,0.45235 -2.402367,4.750842 v 4.75084 h 3.98445 c 2.867618,0 4.389938,-0.604876 5.431095,-2.157987 1.427069,-2.128782 1.453236,-2.121975 1.933509,0.503059 0.602954,3.295578 0.171895,3.766414 -3.448215,3.766414 -1.9525,0 -3.792206,1.070052 -5.724471,3.329597 -2.416962,2.826342 -3.674774,3.383414 -8.321853,3.685656 -3.010988,0.195834 -6.545262,-0.117889 -7.853943,-0.697164 z m 27.715657,-7.246458 c -0.326234,-0.551526 -0.02195,-1.201198 0.676188,-1.443718 1.947343,-0.676471 2.197295,-21.317479 0.282374,-23.318263 -1.976084,-2.06469 -0.928721,-2.814436 3.934071,-2.816171 l 4.125946,-0.0015 -0.335015,13.198253 -0.335018,13.198254 h 4.088602 c 3.054463,0 4.362154,-0.534061 5.170138,-2.111485 1.563711,-3.052833 3.218499,-2.592412 2.845813,0.791806 l -0.319724,2.903309 -9.770112,0.301136 c -5.420374,0.167064 -10.03419,-0.145311 -10.363263,-0.701641 z m 21.649029,-0.06506 c 0,-0.546391 0.454697,-1.287054 1.010436,-1.645919 0.568638,-0.367198 1.010435,-5.444867 1.010435,-11.61317 0,-6.168302 -0.441797,-11.245971 -1.010435,-11.613167 -2.36618,-1.527951 -0.664246,-2.639356 4.041743,-2.639356 4.705995,0 6.40792,1.111405 4.041743,2.639356 -0.568633,0.367196 -1.010436,5.444865 -1.010436,11.613167 0,6.168303 0.441803,11.245972 1.010436,11.61317 2.366177,1.52795 0.664252,2.639354 -4.041743,2.639354 -2.778699,0 -5.052179,-0.447046 -5.052179,-0.993435 z m 13.135666,0 c 0,-0.546391 0.454696,-1.287054 1.010435,-1.645919 0.568645,-0.367198 1.010438,-5.444867 1.010438,-11.61317 0,-6.168302 -0.441793,-11.245971 -1.010438,-11.613167 -1.964055,-1.26828 -0.973383,-2.639356 1.907056,-2.639356 2.403374,0 3.961395,1.348811 8.841316,7.654133 l 5.923822,7.654133 0.310001,-6.314467 c 0.186699,-3.802867 -0.11723,-6.463264 -0.764121,-6.688561 -1.862144,-0.648546 -0.04062,-2.305238 2.534628,-2.305238 2.501749,0 3.300668,1.448188 1.456018,2.639356 -0.582345,0.376048 -1.010437,5.993504 -1.010437,13.259088 0,6.933632 -0.36313,12.606603 -0.806954,12.606603 -0.443824,0 -3.96772,-4.156985 -7.830878,-9.237746 l -7.023924,-9.237749 -0.301646,7.900991 c -0.186183,4.876786 0.1063,8.043067 0.764123,8.272175 0.586173,0.204151 0.808754,0.805692 0.494627,1.336757 -0.753472,1.273804 -5.504066,1.249753 -5.504066,-0.02786 z m 22.22959,0.284759 c 0,-0.389773 0.642553,-1.458712 1.427908,-2.375421 1.309601,-1.528659 2.423221,-4.405088 7.593821,-19.614367 0.98701,-2.903292 2.20274,-5.212632 2.70164,-5.131867 0.86728,0.140401 2.10378,2.977088 7.98946,18.32865 1.44705,3.774278 2.89178,7.484734 3.2105,8.245457 0.44285,1.056939 -0.58341,1.305921 -4.35146,1.055742 -4.43171,-0.294238 -4.89967,-0.56371 -4.62159,-2.661343 0.86104,-6.495233 -6.09389,-8.868466 -8.78488,-2.997674 -1.03947,2.267695 -1.10982,3.224961 -0.25886,3.521335 0.64276,0.223862 0.91165,0.841529 0.59751,1.372594 -0.65348,1.104787 -5.504049,1.33118 -5.504049,0.256894 z M 108.51577,27.944805 c -0.33732,-0.91848 -0.61333,-2.134227 -0.61333,-2.701663 0,-1.720771 -1.74048,-0.02991 -2.30951,2.243683 -0.40374,1.613079 -0.0404,2.127939 1.5018,2.127939 1.43994,0 1.85516,-0.487941 1.42104,-1.669959 z"
       id="path7" />
    <path
       style="fill:#000000"
       id="path2" />
    <path
       style="fill:#000000"
       id="path1" />
    <path
       id="path3"
       style="fill:#ff7f2a;stroke:#ffffff;stroke-width:0;stroke-linecap:round;stroke-linejoin:round;stroke-miterlimit:3.2"
       d="m -122.23438,-15.636719 c 0.17763,0.35525 27.001169,65.159986 54.289068,75.869141 1.415305,-5.174367 3.083135,-10.277488 4.933593,-15.3125 0.198359,-0.533171 0.415588,-1.059683 0.617188,-1.591797 -18.257924,-18.049285 -60.018879,-59.322927 -59.839849,-58.964844 z m 67.902349,66.931641 c -1.567742,3.400317 -3.050851,6.839398 -4.419922,10.324219 3.446535,-0.378945 6.854089,-1.834075 10.166015,-4.646485 0,0 -4.920654,-4.861546 -5.746093,-5.677734 z" />
  </g>
</svg>
